<?xml version="1.0" encoding="iso-8859-1"?>
<!-- Generator: Adobe Illustrator 19.0.0, SVG Export Plug-In . SVG Version: 6.00 Build 0)  -->
<svg xmlns="http://www.w3.org/2000/svg" xmlns:xlink="http://www.w3.org/1999/xlink" version="1.1" id="Layer_1" x="0px" y="0px" viewBox="0 0 512 512" style="enable-background:new 0 0 512 512;" xml:space="preserve" width="512" height="512">
<g id="XMLID_1759_">
	<g id="XMLID_1760_">
		<g id="XMLID_1761_">
			<rect id="XMLID_1762_" x="239.74" y="387.11" style="fill:#5B7FA0;" width="32.52" height="91.32"/>
			<rect id="XMLID_1763_" x="239.74" y="387.11" style="fill:#3F6B86;" width="32.52" height="31.14"/>
			<rect id="XMLID_1764_" x="239.74" y="463.17" style="fill:#3F6B86;" width="32.52" height="15.26"/>
			<rect id="XMLID_1765_" x="146.48" y="7.5" style="fill:#A9CDDF;" width="219.04" height="398.75"/>
			<path id="XMLID_1766_" style="fill:#87ACC8;" d="M365.52,7.5v202.28c-26.28,0-47.66-21.38-47.66-47.66V7.5H365.52z"/>
			<path id="XMLID_1767_" style="fill:#87ACC8;" d="M194.14,7.5v154.62c0,26.28-21.38,47.66-47.66,47.66V7.5H194.14z"/>
			<g id="XMLID_1768_">
				<path id="XMLID_1769_" style="fill:#87ACC8;" d="M256,361.445c-38.454,0-69.739-31.285-69.739-69.739s31.285-69.74,69.739-69.74      s69.739,31.285,69.739,69.74S294.454,361.445,256,361.445z"/>
				<circle id="XMLID_2517_" style="fill:#5B7FA0;" cx="256" cy="291.706" r="57.739"/>
			</g>
			<g id="XMLID_1770_">
				<path id="XMLID_1771_" style="fill:#87ACC8;" d="M256,209.784c-22.668,0-41.109-18.442-41.109-41.11      s18.441-41.109,41.109-41.109s41.109,18.441,41.109,41.109S278.668,209.784,256,209.784z"/>
				<circle id="XMLID_2514_" style="fill:#5B7FA0;" cx="256" cy="168.675" r="29.11"/>
			</g>
			<g id="XMLID_1772_">
				<path id="XMLID_1773_" style="fill:#87ACC8;" d="M256,122.348c-22.668,0-41.109-18.442-41.109-41.11s18.441-41.11,41.109-41.11      s41.109,18.442,41.109,41.11S278.668,122.348,256,122.348z"/>
				<circle id="XMLID_2511_" style="fill:#5B7FA0;" cx="256" cy="81.238" r="29.11"/>
			</g>
			<g id="XMLID_1774_">
				<path id="XMLID_1775_" style="fill:#3F6B86;" d="M256,319.961c-15.58,0-28.255-12.675-28.255-28.255S240.42,263.451,256,263.451      s28.255,12.675,28.255,28.255S271.58,319.961,256,319.961z"/>
				<circle id="XMLID_2508_" style="fill:#FFA438;" cx="256" cy="291.706" r="16.255"/>
			</g>
			<path id="XMLID_2506_" style="fill:#FFA438;" d="M365.525,197.784L365.525,197.784c-19.695,0-35.662-15.966-35.662-35.662V7.5     h35.662V197.784z"/>
			<path id="XMLID_2505_" style="fill:#FFA438;" d="M146.475,197.784L146.475,197.784l0-190.284h35.662v154.623     C182.137,181.818,166.171,197.784,146.475,197.784z"/>
			<rect id="XMLID_2504_" x="182.137" y="475.172" style="fill:#FFA438;" width="147.726" height="29.328"/>
		</g>
		<g id="XMLID_1776_">
			<g id="XMLID_1777_">
				<g id="XMLID_1778_">
					<g id="XMLID_1779_">
						<polygon id="XMLID_2502_" style="fill:#FFC55E;" points="393.826,234.131 430.508,181.392 391.226,181.392 499.232,104.173         459.029,159.511 499.232,159.511       "/>
					</g>
				</g>
				<g id="XMLID_1780_">
					<g id="XMLID_1781_">
						<polygon id="XMLID_2499_" style="fill:#FFC55E;" points="118.174,234.131 81.492,181.392 120.774,181.392 12.768,104.173         52.971,159.511 12.768,159.511       "/>
					</g>
				</g>
			</g>
			<g id="XMLID_1782_">
				<g id="XMLID_1783_">
					<g id="XMLID_1784_">
						<polygon id="XMLID_2495_" style="fill:#FFC55E;" points="118.174,349.281 81.492,402.02 120.774,402.02 12.768,479.239         52.971,423.901 12.768,423.901       "/>
					</g>
				</g>
				<g id="XMLID_1785_">
					<g id="XMLID_1786_">
						<polygon id="XMLID_2492_" style="fill:#FFC55E;" points="393.826,349.281 430.508,402.02 391.226,402.02 499.232,479.239         459.029,423.901 499.232,423.901       "/>
					</g>
				</g>
			</g>
		</g>
	</g>
	<g id="XMLID_1787_">
		<path id="XMLID_1788_" d="M256,356.945c35.973,0,65.239-29.266,65.239-65.239s-29.266-65.24-65.239-65.24    s-65.239,29.267-65.239,65.24S220.027,356.945,256,356.945z M256,241.466c27.702,0,50.239,22.538,50.239,50.24    S283.702,341.945,256,341.945s-50.239-22.537-50.239-50.239S228.298,241.466,256,241.466z"/>
		<path id="XMLID_1791_" d="M256,205.284c20.187,0,36.61-16.423,36.61-36.61s-16.423-36.609-36.61-36.609    s-36.61,16.423-36.61,36.609S235.813,205.284,256,205.284z M256,147.065c11.916,0,21.61,9.694,21.61,21.609    s-9.694,21.61-21.61,21.61s-21.61-9.694-21.61-21.61S244.084,147.065,256,147.065z"/>
		<path id="XMLID_1794_" d="M256,117.848c20.187,0,36.61-16.423,36.61-36.61s-16.423-36.61-36.61-36.61s-36.61,16.423-36.61,36.61    S235.813,117.848,256,117.848z M256,59.628c11.916,0,21.61,9.694,21.61,21.61s-9.694,21.61-21.61,21.61s-21.61-9.694-21.61-21.61    S244.084,59.628,256,59.628z"/>
		<path id="XMLID_1797_" d="M256,315.461c13.099,0,23.755-10.657,23.755-23.755S269.099,267.951,256,267.951    s-23.755,10.657-23.755,23.755S242.901,315.461,256,315.461z M256,282.951c4.828,0,8.755,3.928,8.755,8.755    s-3.928,8.755-8.755,8.755s-8.755-3.928-8.755-8.755S251.172,282.951,256,282.951z"/>
		<path id="XMLID_1800_" d="M255.95,176.174h0.101c4.142,0,7.5-3.358,7.5-7.5s-3.358-7.5-7.5-7.5h-0.101c-4.142,0-7.5,3.358-7.5,7.5    S251.808,176.174,255.95,176.174z"/>
		<path id="XMLID_1801_" d="M255.95,88.738h0.101c4.142,0,7.5-3.358,7.5-7.5s-3.358-7.5-7.5-7.5h-0.101c-4.142,0-7.5,3.358-7.5,7.5    S251.808,88.738,255.95,88.738z"/>
		<path id="XMLID_1802_" d="M365.525,0h-219.05c-4.142,0-7.5,3.358-7.5,7.5v286.565c0,4.142,3.358,7.5,7.5,7.5s7.5-3.358,7.5-7.5    v-89.447c20.235-3.562,35.662-21.255,35.662-42.496V15h132.727v147.123c0,21.24,15.427,38.934,35.662,42.496V398.75h-17.822    c-4.142,0-7.5,3.358-7.5,7.5s3.358,7.5,7.5,7.5h25.322c4.142,0,7.5-3.358,7.5-7.5V68.756c0-4.142-3.358-7.5-7.5-7.5    s-7.5,3.358-7.5,7.5v120.515c-11.899-3.292-20.662-14.215-20.662-27.148V15h20.662v19.579c0,4.142,3.358,7.5,7.5,7.5    s7.5-3.358,7.5-7.5V7.5C373.025,3.358,369.667,0,365.525,0z M174.637,162.123c0,12.933-8.762,23.856-20.662,27.148V15h20.662    V162.123z"/>
		<path id="XMLID_1805_" d="M329.863,467.672h-50.108V413.75h26.27c4.142,0,7.5-3.358,7.5-7.5s-3.358-7.5-7.5-7.5h-152.05v-70.507    c0-4.142-3.358-7.5-7.5-7.5s-7.5,3.358-7.5,7.5v78.007c0,4.142,3.358,7.5,7.5,7.5h85.77v53.921h-50.108    c-4.142,0-7.5,3.358-7.5,7.5V504.5c0,4.142,3.358,7.5,7.5,7.5h147.727c4.142,0,7.5-3.358,7.5-7.5v-29.328    C337.363,471.03,334.005,467.672,329.863,467.672z M247.245,413.75h17.511v53.921h-17.511V413.75z M322.363,497H189.637v-14.328    h132.727V497z"/>
		<path id="XMLID_1809_" d="M391.227,188.893h24.929l-28.486,40.956c-2.08,2.991-1.71,7.043,0.876,9.608    c1.45,1.438,3.36,2.175,5.284,2.175c1.508,0,3.024-0.454,4.331-1.378l105.405-74.62c2.666-1.887,3.804-5.283,2.813-8.396    c-0.99-3.112-3.881-5.226-7.147-5.226h-25.484l31.552-43.43c2.162-2.976,1.847-7.081-0.745-9.691    c-2.591-2.61-6.693-2.958-9.685-0.818l-108.005,77.219c-2.652,1.896-3.775,5.288-2.78,8.392S387.967,188.893,391.227,188.893z     M466.004,137.149l-13.043,17.954c-1.658,2.282-1.895,5.3-0.615,7.813c1.281,2.513,3.862,4.095,6.683,4.095h16.628l-51.241,36.275    l12.25-17.611c1.594-2.292,1.783-5.281,0.49-7.756c-1.293-2.475-3.854-4.026-6.647-4.026h-15.896L466.004,137.149z"/>
		<path id="XMLID_1812_" d="M125.135,175.292L17.13,98.072c-2.992-2.14-7.095-1.792-9.685,0.818    c-2.591,2.611-2.907,6.715-0.745,9.691l31.552,43.43H12.769c-3.266,0-6.157,2.114-7.147,5.226    c-0.99,3.113,0.147,6.508,2.813,8.396l105.405,74.62c1.307,0.925,2.823,1.378,4.331,1.378c1.923,0,3.834-0.737,5.284-2.175    c2.586-2.565,2.956-6.617,0.876-9.608l-28.486-40.956h24.929c3.26,0,6.146-2.105,7.142-5.209S127.787,177.188,125.135,175.292z     M81.492,173.893c-2.792,0-5.354,1.551-6.647,4.026c-1.293,2.475-1.104,5.464,0.49,7.756l12.25,17.611l-51.241-36.275h16.628    c2.82,0,5.402-1.582,6.683-4.095c1.28-2.513,1.043-5.532-0.615-7.813l-13.043-17.954l51.393,36.744H81.492z"/>
		<path id="XMLID_1815_" d="M120.773,394.52H95.845l28.486-40.956c2.08-2.991,1.71-7.043-0.876-9.608    c-2.586-2.565-6.643-2.901-9.615-0.796L8.435,417.779c-2.666,1.887-3.804,5.283-2.813,8.396c0.99,3.112,3.881,5.226,7.147,5.226    h25.484l-31.552,43.43c-2.162,2.976-1.847,7.081,0.745,9.691c1.454,1.465,3.383,2.217,5.326,2.217c1.519,0,3.046-0.46,4.359-1.399    l108.005-77.219c2.652-1.896,3.775-5.288,2.78-8.392S124.033,394.52,120.773,394.52z M45.996,446.263l13.043-17.954    c1.658-2.282,1.895-5.3,0.615-7.813c-1.281-2.513-3.862-4.095-6.683-4.095H36.343l51.241-36.275l-12.25,17.611    c-1.594,2.292-1.783,5.281-0.49,7.756c1.293,2.475,3.854,4.026,6.647,4.026h15.896L45.996,446.263z"/>
		<path id="XMLID_1818_" d="M506.378,426.175c0.99-3.113-0.147-6.508-2.813-8.396L398.16,343.16    c-2.973-2.104-7.028-1.769-9.615,0.796c-2.586,2.565-2.956,6.617-0.876,9.608l28.486,40.956h-24.929    c-3.26,0-6.146,2.105-7.142,5.209s0.128,6.496,2.78,8.392L494.87,485.34c1.313,0.939,2.84,1.399,4.359,1.399    c1.942,0,3.872-0.752,5.326-2.217c2.591-2.611,2.907-6.715,0.745-9.691l-31.552-43.43h25.484    C502.498,431.401,505.388,429.287,506.378,426.175z M459.029,416.401c-2.82,0-5.402,1.582-6.683,4.095    c-1.28,2.513-1.043,5.532,0.615,7.813l13.043,17.954l-51.393-36.744h15.896c2.792,0,5.354-1.551,6.647-4.026    c1.293-2.475,1.104-5.464-0.49-7.756l-12.25-17.611l51.241,36.275H459.029z"/>
		<path id="XMLID_1821_" d="M423.587,291.743c0.012-4.142-3.336-7.509-7.479-7.521l-9.489-0.027c-0.007,0-0.014,0-0.022,0    c-4.132,0-7.488,3.344-7.5,7.479c-0.012,4.142,3.336,7.509,7.479,7.521l9.489,0.027c0.007,0,0.014,0,0.022,0    C420.22,299.222,423.576,295.878,423.587,291.743z"/>
		<path id="XMLID_1822_" d="M402.563,276.485c1.265,0,2.548-0.321,3.724-0.996l8.231-4.721c3.593-2.061,4.836-6.644,2.775-10.237    c-2.06-3.594-6.645-4.836-10.237-2.775l-8.231,4.721c-3.593,2.061-4.836,6.644-2.775,10.237    C397.436,275.132,399.963,276.485,402.563,276.485z"/>
		<path id="XMLID_1823_" d="M398.655,320.865l8.204,4.769c1.186,0.689,2.482,1.017,3.762,1.017c2.584,0,5.099-1.337,6.491-3.732    c2.082-3.581,0.866-8.171-2.715-10.253l-8.204-4.769c-3.58-2.08-8.171-0.866-10.253,2.715    C393.858,314.192,395.074,318.783,398.655,320.865z"/>
		<path id="XMLID_1824_" d="M88.413,291.743c0.012,4.135,3.368,7.479,7.5,7.479c0.007,0,0.015,0,0.022,0l9.489-0.027    c4.142-0.012,7.49-3.379,7.479-7.521c-0.012-4.135-3.368-7.479-7.5-7.479c-0.007,0-0.015,0-0.022,0l-9.489,0.027    C91.749,284.234,88.401,287.601,88.413,291.743z"/>
		<path id="XMLID_1825_" d="M113.175,262.478l-8.231-4.721c-3.592-2.061-8.177-0.819-10.237,2.775    c-2.061,3.593-0.818,8.176,2.775,10.237l8.231,4.721c1.176,0.675,2.458,0.996,3.724,0.996c2.6,0,5.127-1.354,6.513-3.771    C118.011,269.122,116.769,264.539,113.175,262.478z"/>
		<path id="XMLID_1826_" d="M105.807,307.896l-8.204,4.769c-3.581,2.082-4.797,6.672-2.715,10.253    c1.393,2.396,3.907,3.732,6.491,3.732c1.28,0,2.577-0.328,3.762-1.017l8.204-4.769c3.581-2.082,4.797-6.672,2.715-10.253    C113.978,307.029,109.387,305.816,105.807,307.896z"/>
		<path id="XMLID_1827_" d="M196.247,368.945c4.142,0,7.5-3.358,7.5-7.5s-3.358-7.5-7.5-7.5h-0.093c-4.142,0-7.454,3.358-7.454,7.5    S192.104,368.945,196.247,368.945z"/>
		<path id="XMLID_1828_" d="M315.753,353.945c-4.142,0-7.454,3.358-7.454,7.5s3.404,7.5,7.546,7.5s7.5-3.358,7.5-7.5    s-3.358-7.5-7.5-7.5H315.753z"/>
		<path id="XMLID_1829_" d="M210.208,41.837c4.123,0,7.477-3.332,7.499-7.46c0.021-4.142-3.318-7.518-7.46-7.54l-0.093,0    c-0.014,0-0.027,0-0.041,0c-4.123,0-7.431,3.333-7.453,7.461c-0.021,4.142,3.365,7.518,7.507,7.54    C210.181,41.837,210.194,41.837,210.208,41.837z"/>
		<path id="XMLID_1830_" d="M301.887,41.837c4.123,0,7.477-3.332,7.499-7.46c0.021-4.142-3.318-7.518-7.46-7.54l-0.093,0    c-0.014,0-0.027,0-0.041,0c-4.123,0-7.431,3.333-7.453,7.461c-0.021,4.142,3.365,7.518,7.507,7.54    C301.86,41.837,301.874,41.837,301.887,41.837z"/>
	</g>
</g>















</svg>
